<svg width="64" height="64" viewBox="0 0 64 64" fill="none" xmlns="http://www.w3.org/2000/svg">
<path d="M16 60H14.1875C12.9375 60 11.8438 59.5938 10.9062 58.7812C9.96875 57.9688 9.41667 56.9583 9.25 55.75V55.6875L6.5625 36.875C6.52083 36.625 6.40625 36.4167 6.21875 36.25C6.03125 36.0833 5.8125 36 5.5625 36C5.3125 36 5.08333 36.0938 4.875 36.2812C4.66667 36.4688 4.5625 36.7083 4.5625 37C4.5625 37.0417 4.5625 37.0729 4.5625 37.0938C4.5625 37.1146 4.5625 37.125 4.5625 37.125L7.25 56C7.54167 57.7083 8.33333 59.1354 9.625 60.2812C10.9167 61.4271 12.4375 62 14.1875 62H16C16.2917 62 16.5312 61.9062 16.7188 61.7188C16.9062 61.5312 17 61.2917 17 61C17 60.7083 16.9062 60.4688 16.7188 60.2812C16.5312 60.0938 16.2917 60 16 60ZM28 50C27.7083 50 27.4688 50.0938 27.2812 50.2812C27.0938 50.4688 27 50.7083 27 51V55C27 55.8333 27.2917 56.5417 27.875 57.125C28.4583 57.7083 29.1667 58 30 58C30.8333 58 31.5417 57.7083 32.125 57.125C32.7083 56.5417 33 55.8333 33 55V43C33 42.1667 32.7083 41.4583 32.125 40.875C31.5417 40.2917 30.8333 40 30 40C29.1667 40 28.4583 40.2917 27.875 40.875C27.2917 41.4583 27 42.1667 27 43V47C27 47.2917 27.0938 47.5312 27.2812 47.7188C27.4688 47.9062 27.7083 48 28 48C28.2917 48 28.5312 47.9062 28.7188 47.7188C28.9062 47.5312 29 47.2917 29 47V43C29 42.7083 29.0938 42.4688 29.2812 42.2812C29.4688 42.0938 29.7083 42 30 42C30.2917 42 30.5312 42.0938 30.7188 42.2812C30.9062 42.4688 31 42.7083 31 43V55C31 55.2917 30.9062 55.5312 30.7188 55.7188C30.5312 55.9062 30.2917 56 30 56C29.7083 56 29.4688 55.9062 29.2812 55.7188C29.0938 55.5312 29 55.2917 29 55V51C29 50.7083 28.9062 50.4688 28.7188 50.2812C28.5312 50.0938 28.2917 50 28 50ZM14 40C13.1667 40 12.4583 40.2917 11.875 40.875C11.2917 41.4583 11 42.1667 11 43V55C11 55.8333 11.2917 56.5417 11.875 57.125C12.4583 57.7083 13.1667 58 14 58C14.8333 58 15.5417 57.7083 16.125 57.125C16.7083 56.5417 17 55.8333 17 55V43C17 42.1667 16.7083 41.4583 16.125 40.875C15.5417 40.2917 14.8333 40 14 40ZM15 55C15 55.2917 14.9062 55.5312 14.7188 55.7188C14.5312 55.9062 14.2917 56 14 56C13.7083 56 13.4688 55.9062 13.2812 55.7188C13.0938 55.5312 13 55.2917 13 55V43C13 42.7083 13.0938 42.4688 13.2812 42.2812C13.4688 42.0938 13.7083 42 14 42C14.2917 42 14.5312 42.0938 14.7188 42.2812C14.9062 42.4688 15 42.7083 15 43V55ZM19 43V55C19 55.8333 19.2917 56.5417 19.875 57.125C20.4583 57.7083 21.1667 58 22 58C22.8333 58 23.5417 57.7083 24.125 57.125C24.7083 56.5417 25 55.8333 25 55V43C25 42.1667 24.7083 41.4583 24.125 40.875C23.5417 40.2917 22.8333 40 22 40C21.1667 40 20.4583 40.2917 19.875 40.875C19.2917 41.4583 19 42.1667 19 43ZM23 43V55C23 55.2917 22.9062 55.5312 22.7188 55.7188C22.5312 55.9062 22.2917 56 22 56C21.7083 56 21.4688 55.9062 21.2812 55.7188C21.0938 55.5312 21 55.2917 21 55V43C21 42.7083 21.0938 42.4688 21.2812 42.2812C21.4688 42.0938 21.7083 42 22 42C22.2917 42 22.5312 42.0938 22.7188 42.2812C22.9062 42.4688 23 42.7083 23 43ZM44 38C44.2917 38 44.5312 37.9062 44.7188 37.7188C44.9062 37.5312 45 37.2917 45 37C45 36.7083 44.9062 36.4688 44.7188 36.2812C44.5312 36.0938 44.2917 36 44 36H37C36.7083 36 36.4688 36.0938 36.2812 36.2812C36.0938 36.4688 36 36.7083 36 37C36 37.2917 36.0938 37.5312 36.2812 37.7188C36.4688 37.9062 36.7083 38 37 38H44ZM23 36H11C10.7083 36 10.4688 36.0938 10.2812 36.2812C10.0938 36.4688 10 36.7083 10 37C10 37.2917 10.0938 37.5312 10.2812 37.7188C10.4688 37.9062 10.7083 38 11 38H23C23.2917 38 23.5312 37.9062 23.7188 37.7188C23.9062 37.5312 24 37.2917 24 37C24 36.7083 23.9062 36.4688 23.7188 36.2812C23.5312 36.0938 23.2917 36 23 36ZM55.9375 43.0625C56.5625 42.6042 57.0625 42.0208 57.4375 41.3125C57.8125 40.6042 58 39.8333 58 39C58 38.7083 57.9062 38.4688 57.7188 38.2812C57.5312 38.0938 57.2917 38 57 38H55.3125L55.875 34H57C57.8333 34 58.5417 33.7083 59.125 33.125C59.7083 32.5417 60 31.8333 60 31C60 30.1667 59.7083 29.4583 59.125 28.875C58.5417 28.2917 57.8333 28 57 28H50.75L51.625 26.0625C51.9583 26.3125 52.3229 26.5104 52.7188 26.6562C53.1146 26.8021 53.5417 26.875 54 26.875C54.9167 26.875 55.7292 26.6042 56.4375 26.0625C57.1458 25.5208 57.625 24.8125 57.875 23.9375C57.9167 23.7708 57.9479 23.6042 57.9688 23.4375C57.9896 23.2708 58 23.1042 58 22.9375C58 22.8958 58 22.8646 58 22.8438C58 22.8229 58 22.7917 58 22.75C58.5833 22.4167 59.0625 21.9375 59.4375 21.3125C59.8125 20.6875 60 20.0208 60 19.3125C60 18.7292 59.8854 18.1771 59.6562 17.6562C59.4271 17.1354 59.1042 16.6875 58.6875 16.3125C58.7708 16.1458 58.8646 15.9479 58.9688 15.7188C59.0729 15.4896 59.1458 15.25 59.1875 15H59.25C59.2917 14.75 59.3333 14.4896 59.375 14.2188C59.4167 13.9479 59.4375 13.6875 59.4375 13.4375C59.4375 12.6042 59.2812 11.8229 58.9688 11.0938C58.6562 10.3646 58.2292 9.72917 57.6875 9.1875C57.6042 9.10417 57.5 9.04167 57.375 9C57.25 8.95833 57.125 8.9375 57 8.9375C56.7083 8.9375 56.4688 9.03125 56.2812 9.21875C56.0938 9.40625 56 9.64583 56 9.9375C56 10.0625 56.0208 10.1875 56.0625 10.3125C56.1042 10.4375 56.1875 10.5417 56.3125 10.625C56.6458 11 56.9167 11.4271 57.125 11.9062C57.3333 12.3854 57.4375 12.8958 57.4375 13.4375C57.4375 14.2708 57.1979 15.0312 56.7188 15.7188C56.2396 16.4062 55.6042 16.875 54.8125 17.125V17.1875C54.6458 17.2292 54.5 17.3333 54.375 17.5C54.25 17.6667 54.1875 17.8542 54.1875 18.0625C54.1875 18.1875 54.1771 18.3125 54.1562 18.4375C54.1354 18.5625 54.1042 18.6875 54.0625 18.8125V18.75C53.8958 19.4167 53.5417 19.9583 53 20.375C52.4583 20.7917 51.8542 21 51.1875 21C50.4792 21 49.8646 20.7917 49.3438 20.375C48.8229 19.9583 48.4792 19.4375 48.3125 18.8125C48.3125 18.8125 48.3125 18.7917 48.3125 18.75C48.2708 18.6667 48.2396 18.5521 48.2188 18.4062C48.1979 18.2604 48.1875 18.125 48.1875 18C48.1875 17.4583 48.3229 16.9583 48.5938 16.5C48.8646 16.0417 49.2083 15.6667 49.625 15.375H49.6875C49.8125 15.2917 49.9271 15.1771 50.0312 15.0312C50.1354 14.8854 50.1875 14.7083 50.1875 14.5C50.1875 14.25 50.0833 14.0208 49.875 13.8125C49.6667 13.6042 49.4375 13.5 49.1875 13.5C49.0625 13.5 48.9583 13.5208 48.875 13.5625C48.7917 13.6042 48.7292 13.6458 48.6875 13.6875C47.9375 14.1042 47.3333 14.6979 46.875 15.4688C46.4167 16.2396 46.1875 17.0833 46.1875 18C46.1875 18.0417 46.1875 18.1042 46.1875 18.1875C46.1875 18.2708 46.1875 18.3542 46.1875 18.4375V18.375C46.1042 18.4167 46.0104 18.4375 45.9062 18.4375C45.8021 18.4375 45.6875 18.4375 45.5625 18.4375C45.4375 18.4375 45.3125 18.4375 45.1875 18.4375C45.0625 18.4375 44.9375 18.4167 44.8125 18.375H44.875C44.4167 18.25 44.0312 18.0521 43.7188 17.7812C43.4062 17.5104 43.1458 17.1875 42.9375 16.8125C42.9375 16.7708 42.9375 16.75 42.9375 16.75C42.8542 16.5417 42.7812 16.3333 42.7188 16.125C42.6562 15.9167 42.625 15.6875 42.625 15.4375C42.625 15.4375 42.625 15.4167 42.625 15.375C42.625 15.125 42.5312 14.8958 42.3438 14.6875C42.1562 14.4792 41.9167 14.375 41.625 14.375C41.375 14.375 41.1458 14.4688 40.9375 14.6562C40.7292 14.8438 40.625 15.0833 40.625 15.375C40.625 15.375 40.625 15.3854 40.625 15.4062C40.625 15.4271 40.625 15.4375 40.625 15.4375C40.625 15.6875 40.6458 15.9167 40.6875 16.125C40.7292 16.3333 40.7708 16.5417 40.8125 16.75C40.6458 16.7917 40.4792 16.8333 40.3125 16.875C40.1458 16.9167 39.9792 16.9375 39.8125 16.9375C39.6875 16.9375 39.5625 16.9271 39.4375 16.9062C39.3125 16.8854 39.1875 16.8542 39.0625 16.8125C38.7292 16.7292 38.4375 16.6042 38.1875 16.4375C37.9375 16.2708 37.7083 16.0625 37.5 15.8125V15.75C37.2917 15.5 37.125 15.2188 37 14.9062C36.875 14.5938 36.8125 14.2708 36.8125 13.9375C36.8125 13.2292 37.0312 12.6042 37.4688 12.0625C37.9062 11.5208 38.4375 11.1667 39.0625 11H39.125C39.2917 10.9583 39.4479 10.8646 39.5938 10.7188C39.7396 10.5729 39.8125 10.3958 39.8125 10.1875L39.875 10C39.875 9.95833 39.875 9.91667 39.875 9.875C39.875 9.83333 39.875 9.8125 39.875 9.8125C40.0833 9.10417 40.4375 8.5 40.9375 8C41.4375 7.5 42.0417 7.16667 42.75 7C42.75 7.125 42.7396 7.28125 42.7188 7.46875C42.6979 7.65625 42.6875 7.83333 42.6875 8C42.6875 8.54167 42.7604 9.07292 42.9062 9.59375C43.0521 10.1146 43.25 10.5833 43.5 11C43.5833 11.1667 43.6979 11.2917 43.8438 11.375C43.9896 11.4583 44.1458 11.5 44.3125 11.5C44.6042 11.5 44.8438 11.4062 45.0312 11.2188C45.2188 11.0312 45.3125 10.7917 45.3125 10.5C45.3125 10.4167 45.3021 10.3333 45.2812 10.25C45.2604 10.1667 45.2292 10.0833 45.1875 10C45.0208 9.70833 44.8958 9.39583 44.8125 9.0625C44.7292 8.72917 44.6875 8.375 44.6875 8C44.6875 7.70833 44.7188 7.41667 44.7812 7.125C44.8438 6.83333 44.9375 6.54167 45.0625 6.25C45.3958 5.58333 45.8854 5.04167 46.5312 4.625C47.1771 4.20833 47.8958 4 48.6875 4C49.7708 4 50.7083 4.38542 51.5 5.15625C52.2917 5.92708 52.6875 6.875 52.6875 8C52.6875 8.04167 52.6771 8.09375 52.6562 8.15625C52.6354 8.21875 52.625 8.29167 52.625 8.375V8.3125C52.625 8.35417 52.625 8.375 52.625 8.375C52.625 8.66667 52.7292 8.90625 52.9375 9.09375C53.1458 9.28125 53.375 9.375 53.625 9.375C53.875 9.375 54.0938 9.29167 54.2812 9.125C54.4688 8.95833 54.5833 8.75 54.625 8.5C54.625 8.41667 54.6354 8.33333 54.6562 8.25C54.6771 8.16667 54.6875 8.08333 54.6875 8C54.6875 6.33333 54.0938 4.91667 52.9062 3.75C51.7188 2.58333 50.3125 2 48.6875 2C47.6042 2 46.6146 2.26042 45.7188 2.78125C44.8229 3.30208 44.1042 3.97917 43.5625 4.8125C42.2292 4.85417 41.0521 5.29167 40.0312 6.125C39.0104 6.95833 38.3333 8 38 9.25V9.3125C37.0417 9.6875 36.2812 10.2812 35.7188 11.0938C35.1562 11.9062 34.875 12.8333 34.875 13.875C34.875 14.3333 34.9271 14.7604 35.0312 15.1562C35.1354 15.5521 35.2708 15.9375 35.4375 16.3125V16.25C35.3542 16.375 35.2604 16.5104 35.1562 16.6562C35.0521 16.8021 34.9792 16.9375 34.9375 17.0625L34.875 17.125L34.0625 15.3125C33.7292 14.6042 33.2708 13.9896 32.6875 13.4688C32.1042 12.9479 31.4375 12.5833 30.6875 12.375L30.625 12.3125C30.5417 12.2708 30.4271 12.2396 30.2812 12.2188C30.1354 12.1979 30 12.1875 29.875 12.1875L29.8125 12.125L29.5 6.8125C29.5 6.5625 29.3958 6.34375 29.1875 6.15625C28.9792 5.96875 28.75 5.875 28.5 5.875C28.2083 5.875 27.9688 5.96875 27.7812 6.15625C27.5938 6.34375 27.5 6.58333 27.5 6.875C27.5 6.875 27.5 6.88542 27.5 6.90625C27.5 6.92708 27.5 6.9375 27.5 6.9375L27.8125 12.1875C27.6458 12.2292 27.4792 12.2812 27.3125 12.3438C27.1458 12.4062 26.9792 12.4583 26.8125 12.5H26.875L25.5 7.75C25.4583 7.54167 25.3438 7.36458 25.1562 7.21875C24.9688 7.07292 24.7708 7 24.5625 7C24.2708 7 24.0312 7.09375 23.8438 7.28125C23.6562 7.46875 23.5625 7.70833 23.5625 8C23.5625 8.04167 23.5625 8.08333 23.5625 8.125C23.5625 8.16667 23.5625 8.22917 23.5625 8.3125V8.25L23.625 8.375L23.5 8.3125C23.4167 8.22917 23.3125 8.15625 23.1875 8.09375C23.0625 8.03125 22.9375 8 22.8125 8C22.6875 8 22.5625 8.02083 22.4375 8.0625C22.3125 8.10417 22.2083 8.1875 22.125 8.3125V8.25L19.125 11.125C19.0417 11.25 18.9688 11.3646 18.9062 11.4688C18.8438 11.5729 18.8125 11.7083 18.8125 11.875C18.8125 12.0417 18.8542 12.1979 18.9375 12.3438C19.0208 12.4896 19.1458 12.6042 19.3125 12.6875L23.75 15.625C23.7083 15.75 23.6667 15.875 23.625 16C23.5833 16.125 23.5417 16.2708 23.5 16.4375C23.4583 16.6458 23.4271 16.8542 23.4062 17.0625C23.3854 17.2708 23.375 17.4792 23.375 17.6875C23.375 17.7708 23.375 17.8542 23.375 17.9375C23.375 18.0208 23.375 18.1042 23.375 18.1875C22.625 18.3125 21.9167 18.5312 21.25 18.8438C20.5833 19.1562 19.9583 19.5417 19.375 20L18.6875 19.3125C18.6042 19.2292 18.5 19.1562 18.375 19.0938C18.25 19.0312 18.125 19 18 19C17.75 19 17.5208 19.1042 17.3125 19.3125C17.1042 19.5208 17 19.75 17 20C17 20.125 17.0312 20.25 17.0938 20.375C17.1562 20.5 17.2292 20.6042 17.3125 20.6875L17.375 20.75C16.5417 20.9583 15.8229 21.3333 15.2188 21.875C14.6146 22.4167 14.1667 23.0833 13.875 23.875H13.8125L13.75 24.1875L11.3125 23.375C11.2708 23.3333 11.2292 23.3125 11.1875 23.3125C11.1458 23.3125 11.0833 23.3125 11 23.3125C10.7083 23.3125 10.4688 23.4062 10.2812 23.5938C10.0938 23.7812 10 24.0208 10 24.3125C10 24.5208 10.0625 24.7083 10.1875 24.875C10.3125 25.0417 10.4792 25.1667 10.6875 25.25L30.8125 32.1875C30.9792 32.2708 31.125 32.3958 31.25 32.5625C31.375 32.7292 31.4375 32.9375 31.4375 33.1875C31.4375 33.4375 31.3438 33.6667 31.1562 33.875C30.9688 34.0833 30.7292 34.1875 30.4375 34.1875C30.3958 34.1875 30.3438 34.1771 30.2812 34.1562C30.2188 34.1354 30.1667 34.125 30.125 34.125L3.6875 24.9375C3.47917 24.8542 3.3125 24.7292 3.1875 24.5625C3.0625 24.3958 3 24.2083 3 24C3 23.7917 3.05208 23.6146 3.15625 23.4688C3.26042 23.3229 3.39583 23.2083 3.5625 23.125C3.64583 23.0833 3.71875 23.0521 3.78125 23.0312C3.84375 23.0104 3.91667 23 4 23C4.04167 23 4.09375 23 4.15625 23C4.21875 23 4.27083 23.0208 4.3125 23.0625L6.875 23.9375C6.95833 23.9792 7.03125 24 7.09375 24C7.15625 24 7.20833 24 7.25 24C7.54167 24 7.78125 23.9062 7.96875 23.7188C8.15625 23.5312 8.25 23.2917 8.25 23C8.25 22.7917 8.1875 22.6042 8.0625 22.4375C7.9375 22.2708 7.77083 22.1458 7.5625 22.0625L5 21.1875C4.83333 21.1042 4.66667 21.0521 4.5 21.0312C4.33333 21.0104 4.14583 21 3.9375 21C3.14583 21 2.44792 21.2917 1.84375 21.875C1.23958 22.4583 0.9375 23.1667 0.9375 24C0.9375 24.6667 1.13542 25.25 1.53125 25.75C1.92708 26.25 2.41667 26.6042 3 26.8125L6.375 28H3C2.16667 28 1.45833 28.2917 0.875 28.875C0.291667 29.4583 0 30.1667 0 31C0 31.8333 0.291667 32.5417 0.875 33.125C1.45833 33.7083 2.16667 34 3 34H23.6875L29.5 36C29.625 36.0417 29.7708 36.0833 29.9375 36.125C30.1042 36.1667 30.2917 36.1875 30.5 36.1875C31.3333 36.1875 32.0417 35.8958 32.625 35.3125C33.2083 34.7292 33.5 34.0208 33.5 33.1875C33.5 32.5208 33.3021 31.9271 32.9062 31.4062C32.5104 30.8854 32.0208 30.5208 31.4375 30.3125L30.5 30H57C57.2917 30 57.5312 30.0938 57.7188 30.2812C57.9062 30.4688 58 30.7083 58 31C58 31.2917 57.9062 31.5312 57.7188 31.7188C57.5312 31.9062 57.2917 32 57 32H36.4375C36.1875 32 35.9583 32.0938 35.75 32.2812C35.5417 32.4688 35.4375 32.7083 35.4375 33C35.4375 33.2917 35.5417 33.5312 35.75 33.7188C35.9583 33.9062 36.1875 34 36.4375 34H53.875L53.25 38.3125C52.9583 38.4375 52.6875 38.5833 52.4375 38.75C52.1875 38.9167 51.9583 39.0833 51.75 39.25V39.125C51.75 39.0417 51.75 38.9792 51.75 38.9375C51.75 38.8958 51.75 38.8333 51.75 38.75C51.75 38.4167 51.6875 38.0938 51.5625 37.7812C51.4375 37.4688 51.2708 37.1875 51.0625 36.9375C50.8125 36.6458 50.5104 36.4271 50.1562 36.2812C49.8021 36.1354 49.4167 36.0625 49 36.0625C48.5833 36.0625 48.1979 36.1354 47.8438 36.2812C47.4896 36.4271 47.1875 36.6458 46.9375 36.9375C46.7292 37.1875 46.5625 37.4688 46.4375 37.7812C46.3125 38.0938 46.25 38.4167 46.25 38.75C46.25 38.8333 46.25 38.9062 46.25 38.9688C46.25 39.0312 46.25 39.0833 46.25 39.125L46.625 42.0625C46.5 42.0208 46.3854 42 46.2812 42C46.1771 42 46.0833 42 46 42C45.0417 42 44.1354 42.1562 43.2812 42.4688C42.4271 42.7812 41.6667 43.2083 41 43.75V43C41 42.1667 40.7083 41.4583 40.125 40.875C39.5417 40.2917 38.8333 40 38 40C37.1667 40 36.4583 40.2917 35.875 40.875C35.2917 41.4583 35 42.1667 35 43V55C35 55.8333 35.2917 56.5417 35.875 57.125C36.4583 57.7083 37.1667 58 38 58C38.375 58 38.7396 57.9271 39.0938 57.7812C39.4479 57.6354 39.7708 57.4375 40.0625 57.1875C40.3125 57.7292 40.6042 58.2292 40.9375 58.6875C41.2708 59.1458 41.625 59.5833 42 60H20C19.7083 60 19.4688 60.0938 19.2812 60.2812C19.0938 60.4688 19 60.7083 19 61C19 61.2917 19.0938 61.5312 19.2812 61.7188C19.4688 61.9062 19.7083 62 20 62H45.8125C45.8125 62 45.8333 62 45.875 62C45.9167 62 45.9479 62 45.9688 62C45.9896 62 46 62 46 62C46.5417 62 47.0729 61.9479 47.5938 61.8438C48.1146 61.7396 48.6042 61.5833 49.0625 61.375L49 61.4375C49.4583 61.6042 49.9375 61.7396 50.4375 61.8438C50.9375 61.9479 51.4583 62 52 62C52.9167 62 53.8021 61.7083 54.6562 61.125C55.5104 60.5417 56.3125 59.7083 57.0625 58.625C57.1458 58.5417 57.1979 58.4479 57.2188 58.3438C57.2396 58.2396 57.25 58.1458 57.25 58.0625C57.25 57.7708 57.1562 57.5312 56.9688 57.3438C56.7812 57.1562 56.5417 57.0625 56.25 57.0625C56.0833 57.0625 55.9271 57.0938 55.7812 57.1562C55.6354 57.2188 55.5208 57.3333 55.4375 57.5C54.8958 58.2917 54.3229 58.9062 53.7188 59.3438C53.1146 59.7812 52.5417 60 52 60C51.5417 60 51.0938 59.9479 50.6562 59.8438C50.2188 59.7396 49.7917 59.5833 49.375 59.375L49.4375 59.4375C49.3542 59.3958 49.2812 59.3646 49.2188 59.3438C49.1562 59.3229 49.0833 59.3125 49 59.3125C48.9167 59.3125 48.8438 59.3229 48.7812 59.3438C48.7188 59.3646 48.6458 59.3958 48.5625 59.4375C48.1875 59.6042 47.7812 59.7396 47.3438 59.8438C46.9062 59.9479 46.4583 60 46 60C46 60 45.9896 60 45.9688 60C45.9479 60 45.9375 60 45.9375 60C44.4375 59.9583 43.0729 58.7396 41.8438 56.3438C40.6146 53.9479 40 51.8333 40 50C40 48.3333 40.5833 46.9167 41.75 45.75C42.9167 44.5833 44.3333 44 46 44C46.1667 44 46.3229 44.0104 46.4688 44.0312C46.6146 44.0521 46.7708 44.0625 46.9375 44.0625H46.875V44.125C46.9583 44.6667 47.1979 45.1146 47.5938 45.4688C47.9896 45.8229 48.4583 46 49 46C49.5417 46 50.0104 45.8229 50.4062 45.4688C50.8021 45.1146 51.0417 44.6667 51.125 44.125V44.0625C51.25 44.0625 51.3854 44.0521 51.5312 44.0312C51.6771 44.0104 51.8333 44 52 44C53.6667 44 55.0833 44.5833 56.25 45.75C57.4167 46.9167 58 48.3333 58 50C57.9583 50.75 57.8646 51.4792 57.7188 52.1875C57.5729 52.8958 57.375 53.5625 57.125 54.1875V54.125C57.125 54.1667 57.1146 54.2188 57.0938 54.2812C57.0729 54.3438 57.0625 54.4167 57.0625 54.5C57.0625 54.7917 57.1562 55.0312 57.3438 55.2188C57.5312 55.4062 57.7708 55.5 58.0625 55.5C58.2708 55.5 58.4688 55.4375 58.6562 55.3125C58.8438 55.1875 58.9583 55.0208 59 54.8125C59.2917 54.1042 59.5208 53.3438 59.6875 52.5312C59.8542 51.7188 59.9583 50.875 60 50C60 48.5 59.625 47.1354 58.875 45.9062C58.125 44.6771 57.1458 43.7292 55.9375 43.0625ZM3 32C2.70833 32 2.46875 31.9062 2.28125 31.7188C2.09375 31.5312 2 31.2917 2 31C2 30.7083 2.09375 30.4688 2.28125 30.2812C2.46875 30.0938 2.70833 30 3 30H12.1875L17.9375 32H3ZM56 19.3125C56 19.2292 56.0104 19.1458 56.0312 19.0625C56.0521 18.9792 56.0833 18.8958 56.125 18.8125V18.75C56.375 18.625 56.6042 18.4896 56.8125 18.3438C57.0208 18.1979 57.2292 18.0417 57.4375 17.875C57.6042 18.0417 57.7396 18.25 57.8438 18.5C57.9479 18.75 58 19.0208 58 19.3125C58 19.7292 57.8646 20.1146 57.5938 20.4688C57.3229 20.8229 57 21.0625 56.625 21.1875H56.5625C56.3542 21.2708 56.1875 21.3958 56.0625 21.5625C55.9375 21.7292 55.875 21.9167 55.875 22.125C55.875 22.1667 55.875 22.2083 55.875 22.25C55.875 22.2917 55.8958 22.3333 55.9375 22.375C55.9375 22.4583 55.9479 22.5417 55.9688 22.625C55.9896 22.7083 56 22.8125 56 22.9375C56 23.0208 55.9896 23.1042 55.9688 23.1875C55.9479 23.2708 55.9375 23.3542 55.9375 23.4375V23.375C55.8125 23.8333 55.5729 24.1979 55.2188 24.4688C54.8646 24.7396 54.4583 24.875 54 24.875C53.9167 24.875 53.8229 24.875 53.7188 24.875C53.6146 24.875 53.5208 24.8542 53.4375 24.8125H53.5C53.2917 24.7708 53.0938 24.6875 52.9062 24.5625C52.7188 24.4375 52.5625 24.2917 52.4375 24.125L53.125 22.5625C53.25 22.5208 53.3542 22.4792 53.4375 22.4375C53.5208 22.3958 53.6042 22.3542 53.6875 22.3125C54.2292 21.9792 54.7083 21.5521 55.125 21.0312C55.5417 20.5104 55.8333 19.9375 56 19.3125ZM50.8125 22.9375L48.5625 28H42.25L42.5 27.125C42.5 27.125 42.5104 27.0938 42.5312 27.0312C42.5521 26.9688 42.5625 26.9167 42.5625 26.875C42.5625 26.875 42.5521 26.8542 42.5312 26.8125C42.5104 26.7708 42.5 26.7292 42.5 26.6875L40.9375 18.8125C41.0625 18.7708 41.1979 18.7292 41.3438 18.6875C41.4896 18.6458 41.625 18.5833 41.75 18.5L41.6875 18.5625C41.9792 18.8958 42.2917 19.1875 42.625 19.4375C42.9583 19.6875 43.3125 19.8958 43.6875 20.0625H43.75L44.9375 26.125C44.9792 26.3333 45.0833 26.5104 45.25 26.6562C45.4167 26.8021 45.6042 26.875 45.8125 26.875C45.8542 26.875 45.875 26.875 45.875 26.875C45.875 26.875 45.8958 26.875 45.9375 26.875C46.1458 26.875 46.3333 26.8229 46.5 26.7188C46.6667 26.6146 46.7708 26.4792 46.8125 26.3125H46.875L48.75 22.3125C49.0417 22.5208 49.3542 22.6771 49.6875 22.7812C50.0208 22.8854 50.375 22.9375 50.75 22.9375H50.8125ZM46.75 20.3125C46.8333 20.4375 46.9062 20.5521 46.9688 20.6562C47.0312 20.7604 47.1042 20.8542 47.1875 20.9375L46.3125 22.75L45.875 20.4375C46.0417 20.4375 46.1979 20.4271 46.3438 20.4062C46.4896 20.3854 46.6458 20.3542 46.8125 20.3125H46.75ZM38.875 18.8125L39.25 20.625C39.125 20.6667 39 20.6979 38.875 20.7188C38.75 20.7396 38.625 20.75 38.5 20.75C38.4167 20.75 38.3333 20.7396 38.25 20.7188C38.1667 20.6979 38.0833 20.6875 38 20.6875C37.5833 20.5625 37.2396 20.3229 36.9688 19.9688C36.6979 19.6146 36.5625 19.2083 36.5625 18.75C36.5625 18.6667 36.5625 18.5729 36.5625 18.4688C36.5625 18.3646 36.5833 18.2708 36.625 18.1875V18.25C36.625 18.1667 36.6458 18.0938 36.6875 18.0312C36.7292 17.9688 36.75 17.9167 36.75 17.875C37 18.0833 37.2708 18.2604 37.5625 18.4062C37.8542 18.5521 38.1667 18.6667 38.5 18.75H38.5625C38.6042 18.75 38.6562 18.7604 38.7188 18.7812C38.7812 18.8021 38.8333 18.8125 38.875 18.8125ZM37.5 22.625C37.6667 22.6667 37.8333 22.6979 38 22.7188C38.1667 22.7396 38.3542 22.75 38.5625 22.75C38.7292 22.75 38.9167 22.7292 39.125 22.6875C39.3333 22.6458 39.5208 22.6042 39.6875 22.5625H39.625L40.5 26.875L40.1875 28H40L37.5 22.625ZM37.8125 28H35.8125C35.8542 28 35.8958 27.9896 35.9375 27.9688C35.9792 27.9479 36.0208 27.9375 36.0625 27.9375L37.4375 27.125L37.8125 28ZM30.9375 14.6875L29.875 15.3125C29.75 15.3958 29.6354 15.5104 29.5312 15.6562C29.4271 15.8021 29.375 15.9792 29.375 16.1875C29.375 16.4375 29.4792 16.6667 29.6875 16.875C29.8958 17.0833 30.125 17.1875 30.375 17.1875C30.5 17.1875 30.6042 17.1667 30.6875 17.125C30.7708 17.0833 30.8542 17.0417 30.9375 17H30.875L32.25 16.25L33.5625 18.9375L32.375 19.625C32.25 19.7083 32.1354 19.8229 32.0312 19.9688C31.9271 20.1146 31.875 20.2917 31.875 20.5C31.875 20.75 31.9792 20.9792 32.1875 21.1875C32.3958 21.3958 32.625 21.5 32.875 21.5C33 21.5 33.1042 21.4896 33.1875 21.4688C33.2708 21.4479 33.3542 21.4167 33.4375 21.375H33.375L34.4375 20.75L36.5625 25.3125L35.0625 26.1875C34.8958 26.2708 34.7708 26.3854 34.6875 26.5312C34.6042 26.6771 34.5625 26.8542 34.5625 27.0625C34.5625 27.2708 34.625 27.4583 34.75 27.625C34.875 27.7917 35.0417 27.9167 35.25 28H31.75L30.625 26.4375L33.1875 24.9375C33.3125 24.8542 33.4271 24.7396 33.5312 24.5938C33.6354 24.4479 33.6875 24.2708 33.6875 24.0625C33.6875 23.8125 33.5833 23.5833 33.375 23.375C33.1667 23.1667 32.9375 23.0625 32.6875 23.0625C32.6042 23.0625 32.5104 23.0729 32.4062 23.0938C32.3021 23.1146 32.2292 23.1667 32.1875 23.25V23.1875L29.5 24.75L27.8125 22.3125L29.8125 21.125C29.9375 21.0417 30.0521 20.9271 30.1562 20.7812C30.2604 20.6354 30.3125 20.4583 30.3125 20.25C30.3125 20 30.2083 19.7708 30 19.5625C29.7917 19.3542 29.5625 19.25 29.3125 19.25C29.2292 19.25 29.1458 19.2604 29.0625 19.2812C28.9792 19.3021 28.8958 19.3333 28.8125 19.375L26.625 20.625L26 19.75C25.7917 19.4583 25.6354 19.1354 25.5312 18.7812C25.4271 18.4271 25.375 18.0625 25.375 17.6875C25.375 16.6875 25.7292 15.8333 26.4375 15.125C27.1458 14.4167 27.9792 14.0625 28.9375 14.0625C29.1458 14.0625 29.3438 14.0833 29.5312 14.125C29.7188 14.1667 29.8958 14.2083 30.0625 14.25C30.2292 14.2917 30.3854 14.3542 30.5312 14.4375C30.6771 14.5208 30.8125 14.6042 30.9375 14.6875ZM21.4375 11.75L22.75 10.4375L24.75 12.5L25.125 13.625C25.0833 13.6667 25.0312 13.7188 24.9688 13.7812C24.9062 13.8438 24.8542 13.8958 24.8125 13.9375L21.4375 11.75ZM15.6875 24.5625C15.9375 24.0208 16.3125 23.5625 16.8125 23.1875C17.3125 22.8125 17.875 22.625 18.5 22.625C18.5417 22.625 18.5625 22.625 18.5625 22.625L18.3125 23.4375C18.1458 23.8125 17.9062 24.1562 17.5938 24.4688C17.2812 24.7812 16.9167 25 16.5 25.125L15.625 24.875L15.6875 24.5625ZM18.9375 26C19.1875 25.75 19.4167 25.4688 19.625 25.1562C19.8333 24.8438 20 24.5 20.125 24.125H20.1875L20.3125 23.6875C20.3958 23.7708 20.4896 23.8333 20.5938 23.875C20.6979 23.9167 20.8125 23.9375 20.9375 23.9375C21.2292 23.9375 21.4688 23.8438 21.6562 23.6562C21.8438 23.4688 21.9375 23.2292 21.9375 22.9375C21.9375 22.8125 21.9167 22.6979 21.875 22.5938C21.8333 22.4896 21.7708 22.3958 21.6875 22.3125L20.8125 21.4375C21.2708 21.1042 21.7604 20.8229 22.2812 20.5938C22.8021 20.3646 23.3333 20.2083 23.875 20.125H23.9375C24.0208 20.25 24.0938 20.375 24.1562 20.5C24.2188 20.625 24.2917 20.75 24.375 20.875L29.3125 28H24.75L18.9375 26ZM39 55C39 55.2917 38.9062 55.5312 38.7188 55.7188C38.5312 55.9062 38.2917 56 38 56C37.7083 56 37.4688 55.9062 37.2812 55.7188C37.0938 55.5312 37 55.2917 37 55V43C37 42.7083 37.0938 42.4688 37.2812 42.2812C37.4688 42.0938 37.7083 42 38 42C38.2917 42 38.5312 42.0938 38.7188 42.2812C38.9062 42.4688 39 42.7083 39 43V46.125C38.6667 46.7083 38.4167 47.3229 38.25 47.9688C38.0833 48.6146 38 49.2917 38 50C38.0417 50.9167 38.1562 51.8021 38.3438 52.6562C38.5312 53.5104 38.7708 54.3333 39.0625 55.125V55H39ZM55 40H55.8125C55.6042 40.5833 55.25 41.0625 54.75 41.4375C54.25 41.8125 53.6667 42 53 42H52.1875C52.3958 41.4167 52.75 40.9375 53.25 40.5625C53.75 40.1875 54.3333 40 55 40ZM48.875 43.875L48.25 38.875C48.25 38.8333 48.25 38.8125 48.25 38.8125C48.25 38.8125 48.25 38.7917 48.25 38.75C48.25 38.5417 48.3229 38.3646 48.4688 38.2188C48.6146 38.0729 48.7917 38 49 38C49.2083 38 49.3854 38.0729 49.5312 38.2188C49.6771 38.3646 49.75 38.5417 49.75 38.75C49.75 38.7917 49.75 38.8125 49.75 38.8125C49.75 38.8125 49.75 38.8333 49.75 38.875L49.125 43.875C49.125 43.9167 49.1146 43.9479 49.0938 43.9688C49.0729 43.9896 49.0417 44 49 44C48.9583 44 48.9271 43.9896 48.9062 43.9688C48.8854 43.9479 48.875 43.9167 48.875 43.875ZM53.375 46.1875C53.3333 46.1458 53.2708 46.1146 53.1875 46.0938C53.1042 46.0729 53.0208 46.0625 52.9375 46.0625C52.6458 46.0625 52.4062 46.1667 52.2188 46.375C52.0312 46.5833 51.9375 46.8125 51.9375 47.0625C51.9375 47.2708 51.9896 47.4479 52.0938 47.5938C52.1979 47.7396 52.3125 47.8542 52.4375 47.9375C52.7708 48.1042 53.0417 48.3125 53.25 48.5625C53.4583 48.8125 53.625 49.1042 53.75 49.4375C53.8333 49.6458 53.9583 49.8125 54.125 49.9375C54.2917 50.0625 54.4792 50.125 54.6875 50.125C54.9792 50.125 55.2188 50.0312 55.4062 49.8438C55.5938 49.6562 55.6875 49.4167 55.6875 49.125C55.6875 49.0417 55.6875 48.9688 55.6875 48.9062C55.6875 48.8438 55.6667 48.7917 55.625 48.75C55.4167 48.2083 55.125 47.7188 54.75 47.2812C54.375 46.8438 53.9375 46.4792 53.4375 46.1875H53.375Z" fill="#EEC044"/>
</svg>
