<svg width="64" height="64" viewBox="0 0 64 64" fill="none" xmlns="http://www.w3.org/2000/svg">
<path d="M63.5625 34.625L58.3125 29.375C58.1042 29.1667 57.875 29.0625 57.625 29.0625C57.375 29.0625 57.1667 29.1667 57 29.375C56.7917 29.5417 56.6875 29.7604 56.6875 30.0312C56.6875 30.3021 56.7917 30.5208 57 30.6875L62 35.6875L60 37.6875L48.9375 26.625C49.1458 26.5 49.3333 26.3542 49.5 26.1875C49.6667 26.0208 49.8333 25.8542 50 25.6875C50.1667 25.5208 50.3333 25.3542 50.5 25.1875C50.6667 25.0208 50.8125 24.8333 50.9375 24.625L53.875 27.5625C54.0417 27.7708 54.2604 27.875 54.5312 27.875C54.8021 27.875 55.0208 27.7708 55.1875 27.5625C55.3542 27.3958 55.4375 27.1771 55.4375 26.9062C55.4375 26.6354 55.3542 26.4167 55.1875 26.25L52.0625 23.125C53.6042 20.5 54.2083 17.6354 53.875 14.5312C53.5417 11.4271 52.25 8.75 50 6.5C48.7083 5.25 47.2396 4.28125 45.5938 3.59375C43.9479 2.90625 42.2292 2.5625 40.4375 2.5625C38.6042 2.5625 36.8646 2.90625 35.2188 3.59375C33.5729 4.28125 32.1042 5.25 30.8125 6.5C29.4792 7.83333 28.5 9.33333 27.875 11C27.2083 12.6667 26.875 14.3646 26.875 16.0938C26.875 17.8229 27.2083 19.5208 27.875 21.1875C28.5 22.8542 29.4792 24.3542 30.8125 25.6875C32.1458 27.0208 33.6458 28.0208 35.3125 28.6875C36.9792 29.3542 38.6875 29.6875 40.4375 29.6875C41.6458 29.6875 42.8438 29.5208 44.0312 29.1875C45.2188 28.8542 46.3333 28.375 47.375 27.75L58.875 39.25C59.0417 39.4167 59.2188 39.5312 59.4062 39.5938C59.5938 39.6562 59.7917 39.6875 60 39.6875C60.2083 39.6875 60.4062 39.6562 60.5938 39.5938C60.7812 39.5312 60.9583 39.4167 61.125 39.25L63.5625 36.8125C63.8542 36.5208 64 36.1562 64 35.7188C64 35.2812 63.8542 34.9167 63.5625 34.625ZM40.4375 27.8125C38.9375 27.8125 37.4688 27.5208 36.0312 26.9375C34.5938 26.3542 33.2917 25.5 32.125 24.375C29.875 22.0833 28.75 19.3229 28.75 16.0938C28.75 12.8646 29.875 10.125 32.125 7.875C33.25 6.75 34.5208 5.89583 35.9375 5.3125C37.3542 4.72917 38.8542 4.4375 40.4375 4.4375C41.9792 4.4375 43.4583 4.72917 44.875 5.3125C46.2917 5.89583 47.5625 6.75 48.6875 7.875C50.9375 10.125 52.0625 12.8646 52.0625 16.0938C52.0625 19.3229 50.9375 22.0833 48.6875 24.375C47.5208 25.5 46.2188 26.3542 44.7812 26.9375C43.3438 27.5208 41.8958 27.8125 40.4375 27.8125ZM47.4375 9.125C46.4792 8.16667 45.3958 7.4375 44.1875 6.9375C42.9792 6.4375 41.7292 6.1875 40.4375 6.1875C39.1042 6.1875 37.8333 6.4375 36.625 6.9375C35.4167 7.4375 34.3333 8.16667 33.375 9.125C32.4583 10.0417 31.75 11.1042 31.25 12.3125C30.75 13.5208 30.5 14.7917 30.5 16.125C30.5 17.4583 30.75 18.7188 31.25 19.9062C31.75 21.0938 32.4583 22.1667 33.375 23.125C34.375 24.0833 35.4792 24.8021 36.6875 25.2812C37.8958 25.7604 39.1458 26 40.4375 26C41.6875 26 42.9271 25.7604 44.1562 25.2812C45.3854 24.8021 46.4792 24.0833 47.4375 23.125C48.3542 22.1667 49.0625 21.0938 49.5625 19.9062C50.0625 18.7188 50.3125 17.4583 50.3125 16.125C50.3125 14.7917 50.0625 13.5208 49.5625 12.3125C49.0625 11.1042 48.3542 10.0417 47.4375 9.125ZM46.0625 21.8125C45.3125 22.6042 44.4375 23.1875 43.4375 23.5625C42.4375 23.9375 41.4375 24.125 40.4375 24.125C39.3958 24.125 38.375 23.9271 37.375 23.5312C36.375 23.1354 35.5 22.5625 34.75 21.8125C33.9583 21.0208 33.3646 20.1458 32.9688 19.1875C32.5729 18.2292 32.375 17.2083 32.375 16.125C32.375 15.0417 32.5729 14.0104 32.9688 13.0312C33.3646 12.0521 33.9583 11.1875 34.75 10.4375C35.5 9.6875 36.3646 9.10417 37.3438 8.6875C38.3229 8.27083 39.3542 8.0625 40.4375 8.0625C41.4792 8.0625 42.4896 8.27083 43.4688 8.6875C44.4479 9.10417 45.3125 9.6875 46.0625 10.4375C46.8542 11.1875 47.4479 12.0521 47.8438 13.0312C48.2396 14.0104 48.4375 15.0417 48.4375 16.125C48.4375 17.2083 48.2396 18.2292 47.8438 19.1875C47.4479 20.1458 46.8542 21.0208 46.0625 21.8125ZM51.375 43.0625C51.2083 43.2708 51.1458 43.5 51.1875 43.75C51.2292 44 51.3542 44.2083 51.5625 44.375C51.7708 44.5 52 44.5521 52.25 44.5312C52.5 44.5104 52.7083 44.3958 52.875 44.1875C52.9167 44.1458 52.9479 44.1042 52.9688 44.0625C52.9896 44.0208 53.0208 43.9792 53.0625 43.9375C54.0208 42.5625 54.3646 41.1875 54.0938 39.8125C53.8229 38.4375 53.25 37.3125 52.375 36.4375C51.5 35.5208 50.375 34.9271 49 34.6562C47.625 34.3854 46.2292 34.75 44.8125 35.75C44.6042 35.9167 44.3854 36.0938 44.1562 36.2812C43.9271 36.4688 43.7083 36.6667 43.5 36.875C42.2083 38.125 41.3333 39.625 40.875 41.375C40.4167 43.125 40.3958 44.875 40.8125 46.625L38.3125 49.125L35.875 46.625C36.2917 44.875 36.2708 43.125 35.8125 41.375C35.3542 39.625 34.4792 38.125 33.1875 36.875C32.9792 36.6667 32.7604 36.4688 32.5312 36.2812C32.3021 36.0938 32.0833 35.9167 31.875 35.75C31.4167 35.4167 30.9688 35.1667 30.5312 35C30.0938 34.8333 29.6458 34.7292 29.1875 34.6875C28.1875 33.4375 27.0417 32.3646 25.75 31.4688C24.4583 30.5729 23.0625 29.8958 21.5625 29.4375V25.9375C21.5625 25.6875 21.4688 25.4688 21.2812 25.2812C21.0938 25.0938 20.875 25 20.625 25C20.375 25 20.1562 25.0938 19.9688 25.2812C19.7812 25.4688 19.6875 25.6875 19.6875 25.9375V29.625C19.6875 30 19.7917 30.3229 20 30.5938C20.2083 30.8646 20.4792 31.0417 20.8125 31.125C21.9375 31.5 23.0208 32 24.0625 32.625C25.1042 33.25 26.0417 34 26.875 34.875C26.375 35.0417 25.9062 35.25 25.4688 35.5C25.0312 35.75 24.6458 36.0625 24.3125 36.4375C24.1458 36.5625 24 36.7083 23.875 36.875C23.75 37.0417 23.625 37.2292 23.5 37.4375H7.0625C6.77083 37.4375 6.51042 37.5 6.28125 37.625C6.05208 37.75 5.85417 37.9375 5.6875 38.1875C5.0625 39.1875 4.57292 40.2708 4.21875 41.4375C3.86458 42.6042 3.6875 43.7917 3.6875 45C3.6875 46.75 4.02083 48.4167 4.6875 50C5.35417 51.5417 6.27083 52.8854 7.4375 54.0312C8.60417 55.1771 9.95833 56.0833 11.5 56.75C13.0417 57.4167 14.6875 57.75 16.4375 57.75C19.4792 57.75 22.1562 56.8021 24.4688 54.9062C26.7812 53.0104 28.25 50.625 28.875 47.75C29.1667 47.875 29.4583 47.9688 29.75 48.0312C30.0417 48.0938 30.3333 48.1458 30.625 48.1875C30.3333 49.5208 29.8542 50.8021 29.1875 52.0312C28.5208 53.2604 27.6667 54.375 26.625 55.375C25.25 56.75 23.6562 57.8021 21.8438 58.5312C20.0312 59.2604 18.1458 59.6042 16.1875 59.5625C14.3125 59.5625 12.5 59.1875 10.75 58.4375C9 57.6875 7.45833 56.625 6.125 55.25C4.79167 53.9167 3.75 52.375 3 50.625C2.25 48.875 1.875 47.0625 1.875 45.1875C1.875 43.5625 2.11458 42.0104 2.59375 40.5312C3.07292 39.0521 3.77083 37.6667 4.6875 36.375C5.60417 35.125 6.69792 34.0521 7.96875 33.1562C9.23958 32.2604 10.6042 31.5833 12.0625 31.125C12.3958 31.0417 12.6667 30.8646 12.875 30.5938C13.0833 30.3229 13.1875 30 13.1875 29.625V19H19.6875V21.5C19.6875 21.75 19.7812 21.9688 19.9688 22.1562C20.1562 22.3438 20.375 22.4375 20.625 22.4375C20.875 22.4375 21.0938 22.3438 21.2812 22.1562C21.4688 21.9688 21.5625 21.75 21.5625 21.5V19H22.375C23 19 23.5208 18.7917 23.9375 18.375C24.3542 17.9583 24.5625 17.4375 24.5625 16.8125V14.25C24.5625 13.6667 24.3542 13.1562 23.9375 12.7188C23.5208 12.2812 23 12.0625 22.375 12.0625H10.4375C9.85417 12.0625 9.34375 12.2812 8.90625 12.7188C8.46875 13.1562 8.25 13.6667 8.25 14.25V16.8125C8.25 17.4375 8.46875 17.9583 8.90625 18.375C9.34375 18.7917 9.85417 19 10.4375 19H11.3125V29.4375C9.6875 29.9375 8.1875 30.6979 6.8125 31.7188C5.4375 32.7396 4.22917 33.9167 3.1875 35.25C2.14583 36.7083 1.35417 38.2812 0.8125 39.9688C0.270833 41.6562 0 43.3958 0 45.1875C0.0416667 47.3125 0.46875 49.3646 1.28125 51.3438C2.09375 53.3229 3.27083 55.0833 4.8125 56.625C6.3125 58.125 8.04167 59.2917 10 60.125C11.9583 60.9583 14.0208 61.3958 16.1875 61.4375C16.2292 61.4375 16.2708 61.4375 16.3125 61.4375C16.3542 61.4375 16.3958 61.4375 16.4375 61.4375C17.6875 61.4375 18.9062 61.3021 20.0938 61.0312C21.2812 60.7604 22.4167 60.375 23.5 59.875H52.125C52.375 59.875 52.5938 59.7812 52.7812 59.5938C52.9688 59.4062 53.0625 59.1875 53.0625 58.9375C53.0625 58.6875 52.9688 58.4688 52.7812 58.2812C52.5938 58.0938 52.375 58 52.125 58H39.25V50.8125L42.125 47.9375C42.5417 48.0625 42.9583 48.1458 43.375 48.1875C43.7917 48.2292 44.2083 48.25 44.625 48.25C45.4167 48.25 46.1875 48.1667 46.9375 48C47.6875 47.8333 48.4167 47.5833 49.125 47.25C49.375 47.125 49.5417 46.9375 49.625 46.6875C49.7083 46.4375 49.6875 46.2083 49.5625 46C49.4792 45.75 49.3125 45.5833 49.0625 45.5C48.8125 45.4167 48.5625 45.4375 48.3125 45.5625C47.6042 45.8958 46.8646 46.1354 46.0938 46.2812C45.3229 46.4271 44.5417 46.4583 43.75 46.375L48.25 41.875C48.4167 41.7083 48.5 41.4896 48.5 41.2188C48.5 40.9479 48.4167 40.7292 48.25 40.5625C48.0417 40.3542 47.8125 40.25 47.5625 40.25C47.3125 40.25 47.0833 40.3542 46.875 40.5625L42.4375 45C42.3125 43.75 42.4583 42.5312 42.875 41.3438C43.2917 40.1562 43.9583 39.1042 44.875 38.1875C45.0417 38.0208 45.2083 37.8646 45.375 37.7188C45.5417 37.5729 45.7292 37.4167 45.9375 37.25C46.9375 36.5417 47.8958 36.3021 48.8125 36.5312C49.7292 36.7604 50.4792 37.1667 51.0625 37.75C51.6042 38.2917 51.9896 39.0312 52.2188 39.9688C52.4479 40.9062 52.2083 41.875 51.5 42.875C51.5 42.875 51.4896 42.8958 51.4688 42.9375C51.4479 42.9792 51.4167 43.0208 51.375 43.0625ZM10.4375 17.125C10.3542 17.125 10.2812 17.0938 10.2188 17.0312C10.1562 16.9688 10.125 16.8958 10.125 16.8125V14.25C10.125 14.1667 10.1562 14.0938 10.2188 14.0312C10.2812 13.9688 10.3542 13.9375 10.4375 13.9375H22.375C22.4583 13.9375 22.5312 13.9688 22.5938 14.0312C22.6562 14.0938 22.6875 14.1667 22.6875 14.25V16.8125C22.6875 16.8958 22.6562 16.9688 22.5938 17.0312C22.5312 17.0938 22.4583 17.125 22.375 17.125H10.4375ZM7.1875 39.3125H22.6875C22.6042 39.6042 22.5521 39.9062 22.5312 40.2188C22.5104 40.5312 22.5208 40.8542 22.5625 41.1875H6.3125C6.39583 40.8542 6.52083 40.5312 6.6875 40.2188C6.85417 39.9062 7.02083 39.6042 7.1875 39.3125ZM16.4375 55.875C13.4375 55.875 10.875 54.8125 8.75 52.6875C6.625 50.5625 5.5625 48 5.5625 45C5.5625 44.6667 5.58333 44.3333 5.625 44C5.66667 43.6667 5.70833 43.3542 5.75 43.0625H23.125C23.2083 43.1875 23.2917 43.3229 23.375 43.4688C23.4583 43.6146 23.5417 43.7708 23.625 43.9375C23.7917 44.1875 23.9688 44.4167 24.1562 44.625C24.3438 44.8333 24.5417 45.0417 24.75 45.25C25.125 45.5833 25.5104 45.9062 25.9062 46.2188C26.3021 46.5312 26.7083 46.7917 27.125 47C26.6667 49.5417 25.4375 51.6562 23.4375 53.3438C21.4375 55.0312 19.1042 55.875 16.4375 55.875ZM26.0625 43.9375C25.8958 43.7708 25.7396 43.5938 25.5938 43.4062C25.4479 43.2188 25.3125 43.0417 25.1875 42.875C24.4792 41.875 24.2396 40.9062 24.4688 39.9688C24.6979 39.0312 25.0833 38.2917 25.625 37.75C25.9583 37.4167 26.375 37.125 26.875 36.875C27.375 36.625 27.9167 36.5 28.5 36.5C28.875 36.5 29.25 36.5625 29.625 36.6875C30 36.8125 30.375 37 30.75 37.25C30.9583 37.4167 31.1458 37.5729 31.3125 37.7188C31.4792 37.8646 31.6458 38.0208 31.8125 38.1875C32.7292 39.1042 33.3958 40.1562 33.8125 41.3438C34.2292 42.5312 34.375 43.75 34.25 45L29.8125 40.5625C29.6042 40.3542 29.375 40.25 29.125 40.25C28.875 40.25 28.6458 40.3542 28.4375 40.5625C28.2708 40.7292 28.1875 40.9479 28.1875 41.2188C28.1875 41.4896 28.2708 41.7083 28.4375 41.875L32.9375 46.375C31.6875 46.5 30.4583 46.3542 29.25 45.9375C28.0417 45.5208 26.9792 44.8542 26.0625 43.9375ZM37.375 58H26.5C26.75 57.7917 27 57.5833 27.25 57.375C27.5 57.1667 27.7292 56.9583 27.9375 56.75C29.1458 55.5833 30.1354 54.2708 30.9062 52.8125C31.6771 51.3542 32.2292 49.8333 32.5625 48.25C32.8958 48.25 33.2292 48.2188 33.5625 48.1562C33.8958 48.0938 34.2292 48.0208 34.5625 47.9375L37.375 50.8125V58ZM14.1875 47.75C14.1875 48 14.0938 48.2188 13.9062 48.4062C13.7188 48.5938 13.5 48.6875 13.25 48.6875C13 48.6875 12.7812 48.5938 12.5938 48.4062C12.4062 48.2188 12.3125 48 12.3125 47.75C12.3125 47.5 12.4062 47.2812 12.5938 47.0938C12.7812 46.9062 13 46.8125 13.25 46.8125C13.5 46.8125 13.7188 46.9062 13.9062 47.0938C14.0938 47.2812 14.1875 47.5 14.1875 47.75ZM18.5625 51.875C18.5625 52.125 18.4688 52.3438 18.2812 52.5312C18.0938 52.7188 17.875 52.8125 17.625 52.8125C17.375 52.8125 17.1562 52.7188 16.9688 52.5312C16.7812 52.3438 16.6875 52.125 16.6875 51.875C16.6875 51.625 16.7812 51.4062 16.9688 51.2188C17.1562 51.0312 17.375 50.9375 17.625 50.9375C17.875 50.9375 18.0938 51.0312 18.2812 51.2188C18.4688 51.4062 18.5625 51.625 18.5625 51.875ZM20.3125 45.875C20.3125 46.125 20.2188 46.3438 20.0312 46.5312C19.8438 46.7188 19.625 46.8125 19.375 46.8125C19.125 46.8125 18.9062 46.7188 18.7188 46.5312C18.5312 46.3438 18.4375 46.125 18.4375 45.875C18.4375 45.625 18.5312 45.4062 18.7188 45.2188C18.9062 45.0312 19.125 44.9375 19.375 44.9375C19.625 44.9375 19.8438 45.0312 20.0312 45.2188C20.2188 45.4062 20.3125 45.625 20.3125 45.875Z" fill="#EEC044"/>
</svg>
